<?xml version="1.0" standalone="no"?>
<!DOCTYPE svg PUBLIC "-//W3C//DTD SVG 20010904//EN"
 "http://www.w3.org/TR/2001/REC-SVG-20010904/DTD/svg10.dtd">
<svg version="1.0" xmlns="http://www.w3.org/2000/svg"
 width="260.000000pt" height="260.000000pt" viewBox="0 0 260.000000 260.000000"
 preserveAspectRatio="xMidYMid meet">
<metadata>
Created by potrace 1.11, written by Peter Selinger 2001-2013
</metadata>
<g transform="translate(0.000000,260.000000) scale(0.100000,-0.100000)"
fill="#000000" stroke="none">
<path d="M1145 2235 c-201 -159 -254 -198 -242 -178 3 5 3 14 -1 20 -5 8 -28
-5 -69 -35 -55 -42 -69 -62 -145 -196 -125 -225 -123 -218 -100 -269 10 -23
45 -71 77 -106 72 -77 202 -184 214 -177 10 7 9 25 -2 44 -12 18 -7 16 115
-34 87 -36 113 -43 119 -32 13 20 116 -11 267 -80 l127 -58 -2 -37 c-4 -87
-93 -201 -207 -265 -127 -72 -338 -136 -522 -158 -44 -6 -56 -3 -92 21 l-41
27 -33 -23 c-44 -31 -46 -34 -41 -82 10 -99 21 -117 126 -223 108 -107 159
-141 232 -151 28 -3 45 -11 45 -19 0 -10 -17 -14 -65 -14 -62 0 -65 -1 -65
-24 0 -28 -11 -28 141 3 52 11 108 25 124 31 17 6 32 11 35 11 16 -1 91 24
123 42 39 22 50 48 17 42 -29 -6 -35 14 -7 24 13 5 48 12 78 16 68 8 151 62
313 205 74 66 193 228 234 320 46 103 45 109 -11 191 -67 98 -243 273 -337
336 -92 61 -221 124 -315 154 -38 12 -74 25 -79 30 -22 20 175 170 309 237
123 61 309 109 443 113 29 1 55 5 57 9 7 12 -12 31 -40 38 -16 5 -30 13 -33
20 -3 9 19 12 77 12 45 0 81 4 81 9 0 14 -10 18 -65 25 -92 12 -116 18 -112
30 2 6 28 11 63 11 l59 0 3 32 c7 68 -105 139 -252 163 -36 6 -69 10 -73 9 -4
-1 -22 -1 -40 0 -23 1 -31 5 -27 15 4 10 25 12 83 10 69 -2 114 7 101 19 -3 3
-68 8 -145 11 -125 5 -232 21 -275 40 -10 4 -85 -49 -225 -159z m525 -185 c0
-25 -18 -34 -122 -59 -53 -13 -110 -35 -145 -57 -32 -19 -132 -82 -223 -138
-209 -131 -234 -115 -40 25 127 93 174 119 345 195 130 57 185 68 185 34z
m-473 -1357 c-14 -15 -29 -24 -33 -20 -3 3 7 17 22 31 38 32 46 23 11 -11z
m404 -60 c-57 -72 -81 -96 -87 -90 -4 4 11 27 32 53 21 25 43 52 49 60 5 8 16
14 23 14 8 0 2 -15 -17 -37z m-241 -158 c-60 -39 -70 -42 -70 -21 0 7 24 23
53 34 75 30 80 26 17 -13z m-133 -178 c-2 -7 -8 -12 -13 -12 -5 -1 -27 -5 -49
-9 -67 -14 -165 -15 -165 -1 0 8 37 18 108 27 111 15 126 14 119 -5z"/>
</g>
</svg>
